HIERARCHY
ROOT joint_Root
{
  OFFSET 0 0 0
  CHANNELS 6 Xposition Yposition Zposition Zrotation Xrotation Yrotation
  JOINT Hips
  {
    OFFSET 0.0408292 93.9915 0.0639531
    CHANNELS 6 Xposition Yposition Zposition Zrotation Xrotation Yrotation
    JOINT Spine
    {
      OFFSET 15.7357 0 0
      CHANNELS 6 Xposition Yposition Zposition Zrotation Xrotation Yrotation
      JOINT Chest
      {
        OFFSET 8.98455 -0.406207 0
        CHANNELS 6 Xposition Yposition Zposition Zrotation Xrotation Yrotation
        JOINT Neck
        {
          OFFSET 16.3773 0 0
          CHANNELS 6 Xposition Yposition Zposition Zrotation Xrotation Yrotation
          JOINT Head
          {
            OFFSET 6.45672 0 0
            CHANNELS 6 Xposition Yposition Zposition Zrotation Xrotation Yrotation
            End Site
            {
              OFFSET 10 0 0
            }
          }
        }
        JOINT Shoulder_L
        {
          OFFSET 12.9942 -0.242716 4.98039
          CHANNELS 6 Xposition Yposition Zposition Zrotation Xrotation Yrotation
          JOINT UpperArm_L
          {
            OFFSET 5.34809 0 0
            CHANNELS 6 Xposition Yposition Zposition Zrotation Xrotation Yrotation
            JOINT LowerArm_L
            {
              OFFSET 24.3286 1.87007e-05 0
              CHANNELS 6 Xposition Yposition Zposition Zrotation Xrotation Yrotation
              JOINT Hand_L
              {
                OFFSET 22.2916 0 0
                CHANNELS 6 Xposition Yposition Zposition Zrotation Xrotation Yrotation
                End Site
                {
                  OFFSET 5 0 0
                }
              }
            }
          }
        }
        JOINT Shoulder_R
        {
          OFFSET 12.9945 -0.242716 -4.98039
          CHANNELS 6 Xposition Yposition Zposition Zrotation Xrotation Yrotation
          JOINT UpperArm_R
          {
            OFFSET -5.34813 0 0
            CHANNELS 6 Xposition Yposition Zposition Zrotation Xrotation Yrotation
            JOINT LowerArm_R
            {
              OFFSET -24.3289 0.000322201 0
              CHANNELS 6 Xposition Yposition Zposition Zrotation Xrotation Yrotation
              JOINT Hand_R
              {
                OFFSET -22.2915 -0.000108084 0
                CHANNELS 6 Xposition Yposition Zposition Zrotation Xrotation Yrotation
                End Site
                {
                  OFFSET -5 0 0
                }
              }
            }
          }
        }
      }
    }
    JOINT UpperLeg_L
    {
      OFFSET -2.19248 -6.46944 0
      CHANNELS 6 Xposition Yposition Zposition Zrotation Xrotation Yrotation
      JOINT LowerLeg_L
      {
        OFFSET 39.0811 0 -1.23785e-05
        CHANNELS 6 Xposition Yposition Zposition Zrotation Xrotation Yrotation
        JOINT Foot_L
        {
          OFFSET 40.9854 0 -1.26872e-05
          CHANNELS 6 Xposition Yposition Zposition Zrotation Xrotation Yrotation
          JOINT Toes_L
          {
            OFFSET 11.7543 0 0
            CHANNELS 6 Xposition Yposition Zposition Zrotation Xrotation Yrotation
            End Site
            {
              OFFSET 5 0 0
            }
          }
        }
      }
    }
    JOINT UpperLeg_R
    {
      OFFSET -2.19251 6.46944 0
      CHANNELS 6 Xposition Yposition Zposition Zrotation Xrotation Yrotation
      JOINT LowerLeg_R
      {
        OFFSET -39.0811 0 0
        CHANNELS 6 Xposition Yposition Zposition Zrotation Xrotation Yrotation
        JOINT Foot_R
        {
          OFFSET -40.9854 0 0
          CHANNELS 6 Xposition Yposition Zposition Zrotation Xrotation Yrotation
          JOINT Toes_R
          {
            OFFSET -11.7543 0 0
            CHANNELS 6 Xposition Yposition Zposition Zrotation Xrotation Yrotation
            End Site
            {
              OFFSET -5 0 0
            }
          }
        }
      }
    }
  }
}
MOTION
Frames:	7
Frame Time:	0.0333333
0 0 0 0 0 -0 1.63921 92.1273 -3.38756e-05 91.8828 -4.83149 2.51627 15.7357 5.1072e-06 -5.51765e-07 81.006 84.7065 -81.9133 8.98455 -0.406207 -4.3199e-07 -0.269538 -0.754346 0.44595 16.3773 -1.3905e-06 -6.99897e-07 -2.20037 0.0408644 -1.06322 6.45672 -1.25837e-06 -1.02172e-07 0.0795734 7.07827 -0.226376 12.9942 -0.242716 4.98039 -90.0067 9.88332 -86.4567 5.34809 -7.22636e-06 -6.2814e-07 -70.7659 -32.6064 0.613867 24.3286 1.87007e-05 4.90208e-06 -2.95064e-05 8.25299e-06 -28.2548 22.2916 -9.88446e-07 4.63217e-06 14.2739 33.4123 1.68127 12.9945 -0.242716 -4.98039 89.8026 7.84868 -85.1998 -5.34813 -1.25947e-06 -3.79883e-06 -64.9484 -22.6181 7.03316 -24.3289 0.000322201 -8.65921e-06 0.000897792 -0.000217347 -19.9214 -22.2915 -0.000108084 -4.47941e-06 16.8777 22.8911 -12.6538 -2.19248 -6.46944 -1.22534e-07 174.885 0.338005 -5.52892 39.0811 -6.73843e-06 -1.23785e-05 1.82579e-05 1.31247e-06 17.6147 40.9854 -6.48686e-06 -1.26872e-05 3.18691 -1.17034 -58.4067 11.7543 -2.30145e-07 3.05095e-06 -0.972221 -4.01616 -18.0174 -2.19251 6.46944 -1.45247e-06 177.953 -2.42846 156.786 -39.0811 0 0 3.69685e-16 0 57.4718 -40.9854 7.72618e-06 5.99936e-06 5.42439 -0.0356147 -47.7452 -11.7543 -5.6619e-06 -5.58687e-06 0.489463 -1.07007 -24.0615 
0 0 5.25447 0 0 -0 1.22524 92.6681 -0.559923 90.9403 -2.7684 2.88221 15.7357 5.1072e-06 -5.51765e-07 69.5098 83.6857 -70.5563 8.98455 -0.406207 -4.3199e-07 0.0560907 -2.0881 1.53736 16.3773 -1.3905e-06 -6.99897e-07 -1.56709 0.0270581 -0.988736 6.45672 -1.25837e-06 -1.02172e-07 0.200812 7.27885 -0.334712 12.9942 -0.242716 4.98039 -89.9536 9.95101 -86.7687 5.34809 -7.22636e-06 -6.2814e-07 -73.0969 -31.5286 -4.42704 24.3286 1.87007e-05 4.90208e-06 -2.91165e-05 8.58554e-06 -29.6826 22.2916 -9.88446e-07 4.63217e-06 15.9142 36.1894 0.36695 12.9945 -0.242716 -4.98039 89.777 7.82279 -85.0291 -5.34813 -1.25947e-06 -3.79883e-06 -62.7315 -23.2875 10.8526 -24.3289 0.000322201 -8.65921e-06 0.000903828 -0.000209291 -19.1638 -22.2915 -0.000108084 -4.47941e-06 17.068 20.7238 -11.9876 -2.19248 -6.46944 -1.22534e-07 175.971 0.273376 0.395117 39.0811 -6.73843e-06 -1.23785e-05 1.7753e-05 1.85494e-06 13.1102 40.9854 -6.48686e-06 -1.26872e-05 3.46321 0.62932 -58.0016 11.7543 -2.30145e-07 3.05095e-06 -1.12833 -4.46811 -18.4314 -2.19251 6.46944 -1.45247e-06 179.354 -2.00165 153.763 -39.0811 -8.88178e-16 0 -2.76809e-16 9.93923e-17 50.4971 -40.9854 7.72618e-06 5.99936e-06 5.48865 -1.54097 -53.8705 -11.7543 -5.6619e-06 -5.58687e-06 0.332878 -1.68229 -23.976 
0 0 10.5089 0 0 -0 0.778772 92.8237 -1.13673 90.4253 -0.629733 2.93997 15.7357 5.1072e-06 -5.51765e-07 59.7785 82.81 -61.676 8.98455 -0.406207 -4.3199e-07 0.538899 -3.3914 2.51982 16.3773 -1.3905e-06 -6.99897e-07 -1.35416 0.0179361 -0.758493 6.45672 -1.25837e-06 -1.02172e-07 0.0487302 7.33568 -0.2839 12.9942 -0.242716 4.98039 -89.8981 9.95941 -87.095 5.34809 -7.22636e-06 -6.2814e-07 -74.5491 -29.2951 -8.79233 24.3286 1.87007e-05 4.90208e-06 -2.86115e-05 8.96405e-06 -31.3956 22.2916 -9.88446e-07 4.63217e-06 17.6403 37.791 -0.767531 12.9945 -0.242716 -4.98039 89.7485 7.75507 -84.8351 -5.34813 -1.25947e-06 -3.79883e-06 -60.7965 -23.7347 14.4673 -24.3289 0.000322201 -8.65921e-06 0.000907494 -0.000204194 -18.6881 -22.2915 -0.000108084 -4.47941e-06 16.8498 19.253 -11.231 -2.19248 -6.46944 -1.22534e-07 176.885 0.223791 4.92899 39.0811 -6.73843e-06 -1.23785e-05 1.75548e-05 1.42634e-06 10.4096 40.9854 -6.48686e-06 -1.26872e-05 3.42263 2.47578 -57.9542 11.7543 -2.30145e-07 3.05095e-06 -1.31249 -4.7644 -19.1982 -2.19251 6.46944 -1.45247e-06 -179.865 -1.66332 152.496 -39.0811 0 7.10543e-15 -6.48607e-17 0 39.9862 -40.9854 7.72618e-06 5.99936e-06 4.63081 -2.59388 -57.9297 -11.7543 -5.6619e-06 -5.58687e-06 0.109815 -2.38415 -23.3196 
0 0 15.7634 0 0 -0 0.365214 92.4809 -1.65854 90.4913 1.21435 2.55345 15.7357 5.1072e-06 -5.51765e-07 51.1341 82.3272 -54.4543 8.98455 -0.406207 -4.3199e-07 1.04766 -4.46183 3.24676 16.3773 -1.3905e-06 -6.99897e-07 -1.45772 0.012173 -0.478129 6.45672 -1.25837e-06 -1.02172e-07 -0.272882 7.278 -0.165104 12.9942 -0.242716 4.98039 -89.8403 9.90255 -87.4363 5.34809 -7.22636e-06 -6.2814e-07 -74.7947 -26.2352 -12.3428 24.3286 1.87007e-05 4.90208e-06 -2.81076e-05 9.30773e-06 -33.0322 22.2916 -9.88446e-07 4.63217e-06 19.354 38.3364 -1.38037 12.9945 -0.242716 -4.98039 89.723 7.72295 -84.6629 -5.34813 -1.25947e-06 -3.79883e-06 -59.0365 -23.9886 18.0233 -24.3289 0.000322201 -8.65921e-06 0.000908414 -0.000202846 -18.5704 -22.2915 -0.000108084 -4.47941e-06 16.5669 17.9193 -10.3614 -2.19248 -6.46944 -1.22534e-07 177.406 0.101724 7.84076 39.0811 -6.73843e-06 -1.23785e-05 1.7595e-05 1.35891e-06 9.93376 40.9854 -6.48686e-06 -1.26872e-05 3.11946 4.18219 -58.5674 11.7543 -2.30145e-07 3.05095e-06 -1.49726 -4.69182 -20.4035 -2.19251 6.46944 -1.45247e-06 -179.776 -1.30469 152.331 -39.0811 8.88178e-16 0 3.64169e-16 0 27.4989 -40.9854 7.72618e-06 5.99936e-06 2.76529 -3.18985 -59.8981 -11.7543 -5.6619e-06 -5.58687e-06 0.00106905 -2.64237 -22.6823 
0 0 21.0179 0 0 -0 -0.00754638 91.758 -2.02104 90.8541 2.40106 2.02402 15.7357 5.1072e-06 -5.51765e-07 44.7187 82.1539 -49.5112 8.98455 -0.406207 -4.3199e-07 1.46796 -5.13001 3.67891 16.3773 -1.3905e-06 -6.99897e-07 -1.78064 0.00649306 -0.208643 6.45672 -1.25837e-06 -1.02172e-07 -0.663552 7.1846 -0.0820613 12.9942 -0.242716 4.98039 -89.788 9.79991 -87.751 5.34809 -7.22636e-06 -6.2814e-07 -74.0028 -22.9348 -15.1408 24.3286 1.87007e-05 4.90208e-06 -2.77481e-05 9.53654e-06 -34.1694 22.2916 -9.88446e-07 4.63217e-06 21.1351 38.2051 -1.91251 12.9945 -0.242716 -4.98039 89.6973 7.82429 -84.5052 -5.34813 -1.25947e-06 -3.79883e-06 -57.3323 -23.9934 21.2304 -24.3289 0.000322201 -8.65921e-06 0.000909185 -0.000201671 -18.4742 -22.2915 -0.000108084 -4.47941e-06 16.1928 17.0057 -9.53933 -2.19248 -6.46944 -1.22534e-07 177.768 -0.249179 10.2609 39.0811 -6.73843e-06 -1.23785e-05 1.77928e-05 1.43662e-06 10.3297 40.9854 -6.48686e-06 -1.26872e-05 2.35738 5.73592 -59.2209 11.7543 -2.30145e-07 3.05095e-06 -1.64837 -4.06221 -22.2306 -2.19251 6.46944 -1.45247e-06 -179.865 -1.03424 153.185 -39.0811 -8.88178e-16 7.10543e-15 4.1299e-16 -3.97569e-16 14.7478 -40.9854 7.72618e-06 5.99936e-06 0.836351 -3.58161 -60.356 -11.7543 -5.6619e-06 -5.58687e-06 0.0785955 -2.15193 -22.2597 
0 0 26.2723 0 0 -0 -0.333249 90.8967 -2.142 91.2516 3.08769 1.42066 15.7357 5.1072e-06 -5.51765e-07 39.4274 82.1797 -45.4645 8.98455 -0.406207 -4.3199e-07 1.61205 -5.54952 3.96328 16.3773 -1.3905e-06 -6.99897e-07 -2.24165 0.000529683 -0.0133156 6.45672 -1.25837e-06 -1.02172e-07 -1.01754 7.17074 -0.0759198 12.9942 -0.242716 4.98039 -89.7527 9.72762 -87.9652 5.34809 -7.22636e-06 -6.2814e-07 -72.7655 -19.8548 -17.055 24.3286 1.87007e-05 4.90208e-06 -2.76744e-05 9.65992e-06 -34.6729 22.2916 -9.88446e-07 4.63217e-06 22.547 37.5279 -1.95203 12.9945 -0.242716 -4.98039 89.6658 8.02788 -84.3229 -5.34813 -1.25947e-06 -3.79883e-06 -55.729 -23.962 23.5822 -24.3289 0.000322201 -8.65921e-06 0.000913505 -0.000195001 -17.9197 -22.2915 -0.000108084 -4.47941e-06 15.7505 16.7602 -8.81028 -2.19248 -6.46944 -1.22534e-07 178.14 -0.610789 12.7079 39.0811 -6.73843e-06 -1.23785e-05 1.86146e-05 1.57462e-06 10.7157 40.9854 -6.48686e-06 -1.26872e-05 1.16127 7.09986 -59.2047 11.7543 -2.30145e-07 3.05095e-06 -1.79664 -2.91886 -25.0155 -2.19251 6.46944 -1.45247e-06 -179.84 -0.944576 153.478 -39.0811 -8.88178e-16 0 -5.41595e-10 4.98824e-09 6.19657 -40.9854 7.72618e-06 5.99936e-06 0.0796447 -3.69378 -60.227 -11.7543 -5.6619e-06 -5.58687e-06 0.306068 -1.12492 -22.1912 
0 0 31.5268 0 0 -0 -0.595849 90.0234 -1.84674 91.5914 3.60767 0.715251 15.7357 5.1072e-06 -5.51765e-07 33.2115 82.3113 -40.1261 8.98455 -0.406207 -4.3199e-07 1.32201 -5.95196 4.23806 16.3773 -1.3905e-06 -6.99897e-07 -2.80768 -0.000379505 0.00795429 6.45672 -1.25837e-06 -1.02172e-07 -1.23179 7.27698 -0.149515 12.9942 -0.242716 4.98039 -89.746 9.7669 -88.0023 5.34809 -7.22636e-06 -6.2814e-07 -71.624 -17.4774 -17.7763 24.3286 1.87007e-05 4.90208e-06 -2.78769e-05 9.7445e-06 -34.768 22.2916 -9.88446e-07 4.63217e-06 22.9967 36.7023 -0.911214 12.9945 -0.242716 -4.98039 89.6218 8.18039 -84.0582 -5.34813 -1.25947e-06 -3.79883e-06 -54.2806 -23.8919 25.0628 -24.3289 0.000322201 -8.65921e-06 0.000890212 -0.000183004 -16.9665 -22.2915 -0.000108084 -4.47941e-06 15.1407 17.037 -8.28402 -2.19248 -6.46944 -1.22534e-07 178.577 -0.916707 14.9671 39.0811 -6.73843e-06 -1.23785e-05 2.09801e-05 1.91696e-06 11.3503 40.9854 -6.48686e-06 -1.26872e-05 0.0821514 8.41332 -57.6538 11.7543 -2.30145e-07 3.05095e-06 -2.11886 -1.50867 -29.9597 -2.19251 6.46944 -1.45247e-06 -179.651 -0.9738 153.648 -39.0811 0 0 -4.41329e-11 9.39822e-10 2.68859 -40.9854 7.72618e-06 5.99936e-06 0.462821 -3.485 -59.5037 -11.7543 -5.6619e-06 -5.58687e-06 0.443216 -0.56426 -22.3188 
